<svg height="3583" viewBox="0 0 2555 3583" width="2555" xmlns="http://www.w3.org/2000/svg"><path d="m-20 3474h1745l-110 109h-1635z" fill="#252525"/><path d="m1983 3235 570-538.6v224l-570 538.6z" fill="#dfc600"/><path d="m2570.9 3571h-805.9s472.3-466.4 806.2-796.1z" fill="#ffe400"/><path d="m2565.2 3427c-169 0-373.6 0-373.6 0s180.1-177.9 372.8-368.2z" fill="#282933"/><g fill="#ebebeb"><path d="m2306.1-18c-146.4 138.3-510.1 482-510.1 482v-224s134.8-127.4 273.3-258.3z" opacity=".3"/><path d="m2562.6 399.5c-107.1 105.8-178.7 176.5-178.7 176.5h-805.9s317.3-313.4 615.7-608h366.3z" opacity=".3"/><path d="m2562.5 420c-126.4 0-559.9 0-559.9 0s228-225.2 445.4-439.9h114z" opacity=".3"/></g><path d="m-28 3416.6h1814l-23 21h62l84-81v-165l565-521v567l-125 124h227v221h-2608z" fill="none" stroke="#ffe400" stroke-width="10"/><path d="m2555.4 88.9h-2138l110-109h2028z" fill="#252525"/><path d="m157.4 315.9-176 167.6v-224l176-167.6z" fill="#dfc600"/><path d="m-19-20.1h394.4s-174.2 172-385.7 380.9z" fill="#ffe400"/><path d="m-16-31.1 2598.4.4v153.1h-2230l23-21h-62l-84 81v165l-245.4 226.6z" fill="none" stroke="#ffe400" stroke-width="10"/></svg>